<svg width="1440" height="320" viewBox="0 0 1440 320" xmlns="http://www.w3.org/2000/svg">
  <path fill="#0095D9" fill-opacity="0.1" d="M0,192L48,197.3C96,203,192,213,288,229.3C384,245,480,267,576,250.7C672,235,768,181,864,181.3C960,181,1056,235,1152,234.7C1248,235,1344,181,1392,154.7L1440,128L1440,320L1392,320C1344,320,1248,320,1152,320C1056,320,960,320,864,320C768,320,672,320,576,320C480,320,384,320,288,320C192,320,96,320,48,320L0,320Z"></path>
  <path fill="#001F3F" fill-opacity="0.1" d="M0,64L48,85.3C96,107,192,149,288,154.7C384,160,480,128,576,128C672,128,768,160,864,165.3C960,171,1056,149,1152,144C1248,139,1344,149,1392,154.7L1440,160L1440,320L1392,320C1344,320,1248,320,1152,320C1056,320,960,320,864,320C768,320,672,320,576,320C480,320,384,320,288,320C192,320,96,320,48,320L0,320Z"></path>
  <path fill="#FFD700" fill-opacity="0.05" d="M0,256L48,245.3C96,235,192,213,288,202.7C384,192,480,192,576,181.3C672,171,768,149,864,154.7C960,160,1056,192,1152,197.3C1248,203,1344,181,1392,170.7L1440,160L1440,320L1392,320C1344,320,1248,320,1152,320C1056,320,960,320,864,320C768,320,672,320,576,320C480,320,384,320,288,320C192,320,96,320,48,320L0,320Z"></path>
</svg> 